Coordinates
version=1
nRows=27
nColumns=12
inDegrees=yes

Units are S.I. units (second, meters, Newtons, ...)
Angles are in degrees

endheader
time	SC_y	SC_z	SC_x	AC_y	AC_z	AC_x	GH_y	GH_z	GH_yy	EL_x	PS_y
       0.0               -59.3          34.31          27.13          50.52          2.485          10.16           15.5       0.002951          10.89          69.87          101.7
   0.04339               -59.3          34.31          27.13          50.52          2.484          10.16          15.52       0.004942          10.89          69.87          101.7
   0.08678               -59.3          34.31          27.14          50.52          2.483          10.16          15.53       0.007057           10.9          69.88          101.7
    0.1302               -59.3          34.31          27.14          50.53          2.482          10.16          15.55       0.009306           10.9          69.88          101.7
    0.1736               -59.3          34.31          27.14          50.53          2.481          10.15          15.57         0.0117          10.91          69.89          101.7
     0.217               -59.3          34.31          27.14          50.53           2.48          10.15          15.59        0.01425          10.91          69.89          101.7
    0.2604               -59.3          34.31          27.15          50.54          2.478          10.15          15.61        0.01698          10.92           69.9          101.7
    0.3037               -59.3          34.31          27.15          50.54          2.477          10.14          15.63         0.0199          10.93           69.9          101.7
    0.3471               -59.3          34.31          27.15          50.55          2.475          10.14          15.66        0.02302          10.94          69.91          101.7
    0.3905               -59.3          34.31          27.16          50.55          2.473          10.14          15.68        0.02637          10.95          69.92          101.7
    0.4339               -59.3           34.3          27.16          50.56          2.471          10.13          15.71        0.02996          10.95          69.92          101.6
    0.4773               -59.3           34.3          27.16          50.56          2.469          10.13          15.74        0.03383          10.96          69.93          101.6
    0.5207               -59.3           34.3          27.17          50.57          2.467          10.13          15.77        0.03801          10.97          69.94          101.6
    0.5641               -59.3           34.3          27.17          50.57          2.465          10.12          15.81        0.04251          10.99          69.95          101.6
    0.6075               -59.3           34.3          27.18          50.58          2.462          10.12          15.85        0.04739           11.0          69.96          101.6
    0.6509               -59.3           34.3          27.18          50.59          2.459          10.11          15.89        0.05268          11.01          69.97          101.6
    0.6943               -59.3           34.3          27.19          50.59          2.456          10.11          15.93        0.05843          11.03          69.98          101.6
    0.7377               -59.3          34.29           27.2           50.6          2.453           10.1          15.98        0.06469          11.04          69.99          101.5
    0.7811               -59.3          34.29           27.2          50.61          2.449          10.09          16.03        0.07153          11.06          70.01          101.5
    0.8245               -59.3          34.29          27.21          50.62          2.445          10.09          16.09        0.07902          11.08          70.02          101.5
    0.8678               -59.3          34.29          27.22          50.64          2.441          10.08          16.16        0.08724           11.1          70.04          101.5
    0.9112               -59.3          34.29          27.23          50.65          2.436          10.07          16.23        0.09629          11.12          70.06          101.4
    0.9546               -59.3          34.28          27.24          50.66          2.431          10.06           16.3         0.1063          11.15          70.08          101.4
     0.998               -59.3          34.28          27.25          50.68          2.425          10.05          16.39         0.1174          11.17           70.1          101.4
     1.041               -59.3          34.28          27.27          50.69          2.419          10.04          16.49         0.1297           11.2          70.13          101.3
     1.085               -59.3          34.27          27.28          50.71          2.412          10.02          16.59         0.1434          11.24          70.16          101.3
     1.128               -59.3          34.27           27.3          50.74          2.404          10.01          16.71         0.1588          11.28          70.19          101.2
